<svg xmlns="http://www.w3.org/2000/svg" xmlns:xlink="http://www.w3.org/1999/xlink" aria-hidden="true" role="img" class="iconify iconify--logos" width="31.88" height="32" preserveAspectRatio="xMidYMid meet" viewBox="0 0 256 257"><defs><linearGradient id="IconifyId1813088fe1fbc01fb466" x1="-.828%" x2="57.636%" y1="7.652%" y2="78.411%"><stop offset="0%" stop-color="#FF00FF"></stop><stop offset="100%" stop-color="#FF8C00"></stop></linearGradient></defs><path fill="url(#IconifyId1813088fe1fbc01fb466)" d="M255.153 37.938L134.897 252.976c-2.883 5.084-10.017 5.246-13.122.51L.513 37.938c-2.906-5.142.567-11.582 6.614-13.596l12.677-3.665c5.9-1.715 12.479 1.228 15.961 6.convex L159.288 25.5l-42.747 71.066h94.129L88.129 25.5 74.267 25.5L159.288 120.575L50.635 148.065l108.653-27.49zm21.61-4.637L42.883 9.73c-6.868-1.23-13.995 3.806-15.994 10.465L4.822 247.769c-1.999 6.659 2.716 13.995 9.584 15.225l234.236 42.268c6.868 1.23 13.995-3.806 15.994-10.465l22.067-227.574c1.999-6.659-2.716-13.995-9.584-15.225Z"></path></svg>